<?xml version="1.0" encoding="UTF-8"?> <svg xmlns="http://www.w3.org/2000/svg" xmlns:xlink="http://www.w3.org/1999/xlink" id="Layer_3" viewBox="0 0 536.9 472.6"><style> .st0, .st1, .st2, .st3, .st4, .st5, .st6, .st7, .st8, .st9, .st10, .st11, .st12, .st13, .st14, .st15, .st16, .st17, .st18{ fill: none; stroke: #0371B0!important; stroke-width: 1px; stroke-dasharray: 1060; stroke-dashoffset: 1060; } <!----> @keyframes line { 100% { stroke-dashoffset: 0; } } @keyframes line-out { 100% { stroke-width: 0px; } } <!-- --> .st0 { stroke: #f5fafe; animation: line 3s ease-in-out forwards, anima00 .4s 2s forwards, line-out .3s 2s linear forwards; } @keyframes anima00 { 0%{ fill: transparent; } 100% { fill: #f5fafe; } } <!-- --> .st1 { stroke:#6eafff; animation: line 3s ease-in-out forwards, anima01 .4s 2s forwards, line-out .3s 2s linear forwards; } @keyframes anima01 { 0%{ fill: transparent; } 100% { fill: #6eafff; opacity: 0.1; } } <!-- --> .st2 { stroke: green; animation: line 3s ease-in-out forwards, anima02 .4s 2s forwards, line-out .3s 2s linear forwards; } @keyframes anima02 { 0%{ fill: transparent; } 100% { fill: green; } } <!-- --> .st3 { stroke: #5aa3ff; animation: line 3s ease-in-out forwards, anima03 .4s 2s forwards, line-out .3s 2s linear forwards; } @keyframes anima03 { 0%{ fill: transparent; } 100% { fill: #5aa3ff; } } <!-- --> .st4 { stroke:#9ec3fd; animation: line 3s ease-in-out forwards, anima04 .4s 2s forwards, line-out .3s 2s linear forwards; } @keyframes anima04 { 0%{ fill: transparent; } 100% { fill: #9ec3fd; } } <!-- --> .st5 { stroke:#f5fafe; animation: line 3s ease-in-out forwards, anima05 .4s 2s forwards, line-out .3s 2s linear forwards; } @keyframes anima05 { 0%{ fill: transparent; } 100% { fill: #f5fafe; } } <!-- --> .st6 { stroke:#3cbfbd; animation: line 3s ease-in-out forwards, anima06 .4s 2s forwards, line-out .3s 2s linear forwards; } @keyframes anima06 { 0%{ fill: transparent; } 100% { fill: #3cbfbd; } } <!-- --> .st7 { stroke:#fff; animation: line 3s ease-in-out forwards, anima07 .4s 2s forwards, line-out .3s 2s linear forwards; } @keyframes anima07 { 0%{ fill: transparent; } 100% { fill: #fff; } } <!-- --> .st8 { stroke:#a5c4fd; animation: line 3s ease-in-out forwards, anima08 .4s 2s forwards, line-out .3s 2s linear forwards; } @keyframes anima08 { 0%{ fill: transparent; } 100% { fill: #a5c4fd; } } <!-- --> .st9 { stroke:#fff; animation: line 3s ease-in-out forwards, anima09 .4s 2s forwards, line-out .3s 2s linear forwards; } @keyframes anima09 { 0%{ fill: transparent; } 100% { fill: #fff; } } <!-- --> .st10 { stroke:#81aaea; animation: line 3s ease-in-out forwards, anima10 .4s 2s forwards, line-out .3s 2s linear forwards; } @keyframes anima10 { 0%{ fill: transparent; } 100% { fill: #81aaea; } } <!-- --> .st11 { stroke:#fcb7b2; animation: line 3s ease-in-out forwards, anima11 .4s 2s forwards, line-out .3s 2s linear forwards; } @keyframes anima11 { 0%{ fill: transparent; } 100% { fill: #fcb7b2; } } <!-- --> .st12 { stroke:#0152df; animation: line 3s ease-in-out forwards, anima12 .4s 2s forwards, line-out .3s 2s linear forwards; } @keyframes anima12 { 0%{ fill: transparent; } 100% { fill: #0152df; } } <!-- --> .st13 { stroke:#34ada4; animation: line 3s ease-in-out forwards, anima13 .4s 2s forwards, line-out .3s 2s linear forwards; } @keyframes anima13 { 0%{ fill: transparent; } 100% { fill: #34ada4; } } <!-- --> .st14 { stroke:#7bb5ff; animation: line 3s ease-in-out forwards, anima14 .4s 2s forwards, line-out .3s 2s linear forwards; } @keyframes anima14 { 0%{ fill: transparent; } 100% { fill: #7bb5ff; } } <!-- --> .st15 { stroke:#000d8a; animation: line 3s ease-in-out forwards, anima15 .4s 2s forwards, line-out .3s 2s linear forwards; } @keyframes anima15 { 0%{ fill: transparent; } 100% { fill: #000d8a; } } <!-- --> .st16 { stroke:#000; animation: line 3s ease-in-out forwards, anima16 .4s 2s forwards, line-out .3s 2s linear forwards; } @keyframes anima16 { 0%{ fill: transparent; } 100% { fill: #000; } } <!-- --> .st17 { stroke:#010101; animation: line 3s ease-in-out forwards, anima17 .4s 2s forwards, line-out .3s 2s linear forwards; } @keyframes anima17 { 0%{ fill: transparent; } 100% { fill: #010101; } } <!-- --> .st18 { stroke: red; animation: line 3s ease-in-out forwards, anima18 .4s 2s forwards, line-out .3s 2s linear forwards; } @keyframes anima18 { 0%{ fill: transparent; } 100% { fill: red; } } #cabezaHombreDer{ transform-origin: 83.046px 132.006px; animation: rotationCabezaHombreDer 10s cubic-bezier(0.4, 0, 0.2, 1); animation-iteration-count: 2; animation-delay: 3s; } @keyframes rotationCabezaHombreDer { 0%{ transform: rotate(0deg); } 50%{ transform: rotate(15deg); } 100%{ transform: rotate(0deg); } } #cabezaHombreIzq{ transform-origin: 456.065px 138.956px; animation: rotationHombreIzq 10s cubic-bezier(0.4, 0, 0.2, 1); animation-iteration-count: 2; animation-delay: 5s; } @keyframes rotationHombreIzq { 0%{ transform: rotate(0deg); } 50%{ transform: rotate(-10deg); } 100%{ transform: rotate(0deg); } } <!----> #BrazoHombre{ transform-origin: 135.05px 184.009px; transform: rotate(0deg); animation: rotation01 10s cubic-bezier(0.4, 0, 0.2, 1); animation-iteration-count: 2; } @keyframes rotation01 { 0%{ transform: rotate(0deg); } 25%{ transform: rotate(20deg); } 50%{ transform: rotate(0deg); } 75% { transform: rotate(-20deg); } 100%{ transform: rotate(0deg); } } <!----> #Globo01{ animation: globoEffect 10s cubic-bezier(0.46, 0.03, 0.52, 0.96); animation-iteration-count: 2; animation-delay: 2s; opacity: 0; } @keyframes globoEffect { 0%{ transform: translate(0px, 20px); opacity: 0; } 5%{ transform: translate(0px, 0px); opacity: 1; } 40%{ transform: translate(0px, 0px); opacity: 1; } 45%{ transform: translate(0px, 20px); opacity: 0; } } <!----> #structure01{ animation: structure01 20s cubic-bezier(0.46, 0.03, 0.52, 0.96); animation-iteration-count: 1; animation-delay: 10s; opacity: 0; } @keyframes structure01 { 0%{ transform: translate(0px, 0px); opacity: 0; } 5%{ transform: translate(0px, 0px); opacity: 1; } 40%{ transform: translate(0px, 0px); opacity: 1; } 45%{ transform: translate(0px, 0px); opacity: 0; } } <!----> #Globo02{ animation: globoEffect2 10s cubic-bezier(0.46, 0.03, 0.52, 0.96); animation-iteration-count: 2; animation-delay: 6s; opacity: 0; } @keyframes globoEffect2 { 0%{ transform: translate(0px, 20px); opacity: 0; } 5%{ transform: translate(0px, 0px); opacity: 1; } 40%{ transform: translate(0px, 0px); opacity: 1; } 45%{ transform: translate(0px, 20px); opacity: 0; } } <!----> #structure02{ animation: structure02 20s cubic-bezier(0.46, 0.03, 0.52, 0.96); animation-iteration-count: 1; animation-delay: 1s; transform: translate(0px, -2px); opacity: 0; } @keyframes structure02 { 0%{ transform: translate(0px, -2px); opacity: 0; } 5%{ transform: translate(0px, -2px); opacity: 1; } 40%{ transform: translate(0px, -2px); opacity: 1; } 45%{ transform: translate(0px, -2px); opacity: 0; } } #structure03{ animation: structure03 20s cubic-bezier(0.46, 0.03, 0.52, 0.96) forwards; animation-delay: 19s; animation-iteration-count: 1; opacity: 0; } @keyframes structure03 { 0%{ transform: translate(0px, -2px); opacity: 0; } 5%{ transform: translate(0px, -2px); opacity: 1; } 100%{ transform: translate(0px, -2px); opacity: 1; } } <!----> #validation01{ animation: validation01 20s cubic-bezier(0.46, 0.03, 0.52, 0.96); animation-iteration-count: 1; animation-delay: 10s; opacity: 0; } @keyframes validation01 { 0%{ transform: translate(0px, -10px); opacity: 0; } 5%{ transform: translate(0px, 0px); opacity: 1; } 40%{ transform: translate(0px, 0px); opacity: 1; } 45%{ transform: translate(0px, -10px); opacity: 0; } } <!----> #validation02{ animation: validation02 20s cubic-bezier(0.46, 0.03, 0.52, 0.96); animation-iteration-count: 1; animation-delay: 2s; opacity: 0; transform: translate(0, 28px); } @keyframes validation02 { 0%{ transform: translate(0px, 28px); opacity: 0; } 5%{ transform: translate(0px, 38px); opacity: 1; } 35%{ transform: translate(0px, 38px); opacity: 1; } 40%{ transform: translate(0px, 28px); opacity: 0; } } </style><path class="st0" d="M339 25.9c-141-75-309 59-309 180 0 236 163 245 269 245 80 0 267.6-62.1 233-219.6-30-136.4-142.3-49.8-171-88.4-17.8-23.9 30.4-89.2-22-117z"></path><path class="st1" d="M0 270.9c0 113 135 44 185 91 45.5 42.8 12.6 85 78.6 107 73.1 24.3 240.8-72.2 224.4-259-8-91-94.5-125.2-141-145C174-8.6 0 125.4 0 270.9z"></path><defs><path id="SVGID_1_" d="M263.6 468.9c49.4 16.5 142.1-22.4 191.9-107H185c45.5 42.8 12.6 85 78.6 107z"></path></defs><clipPath id="SVGID_2_"><use overflow="visible" xlink:href="#SVGID_1_"></use></clipPath><g clip-path="url(#SVGID_2_)"><path d="M396.4 450.7h59.1v38.2h-59.1zM312.8 361.9h80.7v37.6h-80.7zM164.5 450.7h61.9v38.2h-61.9zM312.8 450.7h80.7v38.2h-80.7zM396.4 402.3h59.1v45.6h-59.1zM396.4 361.9h59.1v37.6h-59.1zM229.3 361.9H310v37.6h-80.7zM312.8 402.3h80.7v45.6h-80.7zM164.5 402.3h61.9v45.6h-61.9zM229.3 402.3H310v45.6h-80.7zM164.5 361.9h61.9v37.6h-61.9zM229.3 450.7H310v38.2h-80.7z" class="st3"></path><path d="M226.4 361.9h2.8v37.6h-2.8zM226.4 402.3h2.8v45.6h-2.8zM226.4 450.7h2.8v38.2h-2.8zM310 361.9h2.8v37.6H310zM310 402.3h2.8v45.6H310zM310 450.7h2.8v38.2H310zM393.6 361.9h2.8v37.6h-2.8zM393.6 402.3h2.8v45.6h-2.8zM393.6 450.7h2.8v38.2h-2.8z" class="st4"></path><path d="M393.6 399.4H164.5v2.9H455.5v-2.9h-59.1zM393.6 447.9H164.5v2.8H455.5v-2.8h-59.1z" class="st4"></path></g><path class="st0" d="M500.3 90c-11.2-.1-31.5 29.3-6.5 41.6 27.1 13.3 55.3-24.6 35.6-35.5-7.5-4.1-12.7 5.2-18.6 2.2-4.5-2.2-5.7-8.2-10.5-8.3z"></path><g id="Globo01"><path d="M85.8 65.6c0 3.1-2.5 5.6-5.6 5.6h-3.8v13.2L63.2 71.2H20c-3.1 0-5.6-2.5-5.6-5.6v-47c0-3.1 2.5-5.6 5.6-5.6h60.2c3.1 0 5.6 2.5 5.6 5.6v47z" class="st6"></path><path d="M25.6 29.8h48.9v3.8H25.6zM25.6 39.2h48.9V43H25.6zM25.6 48.6h48.9v3.8H25.6z" class="st7"></path></g><polygon class="st8" points="183.3,270.4 183.3,294.7 183.3,319.1 183.3,361.1 189.9,361.1 194.9,289.4 360.1,289.4 365,361.1 371.7,361.1 371.7,319.1 371.7,294.7 371.7,270.4"></polygon><g id="structure01"><rect x="252.4" y="139.6" class="st8" width="32" height="27.9"></rect><path d="M284.5 167.5h-32.1v-9.4l5.5-6.3 5.7 6.3 4.8-5 16.1 8.6z" class="st10"></path><circle cx="279" cy="149.5" r="3.5" class="st10"></circle><path d="M291.3 139.6h47.5v5.8h-47.5zM291.3 150.4h66.6v17.1h-66.6zM252.4 174.3h32v27.9h-32z" class="st8"></path><path d="M284.5 202.1h-32.1v-9.4l5.5-6.3 5.7 6.3 4.8-5 16.1 8.6z" class="st10"></path><circle cx="279" cy="184.1" r="3.5" class="st10"></circle><path d="M291.3 174.3h47.5v5.8h-47.5zM291.3 185h66.6v17.1h-66.6zM196.8 139.6h47.7v62.5h-47.7zM196.8 119.4h28.9v5.3h-28.9zM229.9 119.4h28.9v5.3h-28.9zM262.9 119.4h28.9v5.3h-28.9zM295.9 119.4h28.9v5.3h-28.9zM329 119.4h28.9v5.3H329zM249.9 87.1h19.5v19.5h-19.5z" class="st8"></path><path d="M273.4 87.1h19.5v8h-19.5z" class="st10"></path><path d="M273.4 97h25.2v3.5h-25.2z" class="st8"></path></g><g id="structure02"><path d="M252.4 153.6h32v27.9h-32z" class="st8"></path><path d="M284.5 181.5h-32.1v-9.4l5.5-6.3 5.7 6.3 4.8-5 16.1 8.6z" class="st10"></path><circle cx="279" cy="163.5" r="3.5" class="st10"></circle><path d="M291.3 153.6h47.5v5.8h-47.5zM291.3 164.4h66.6v17.1h-66.6zM252.4 119h32v27.9h-32z" class="st8"></path><path d="M284.5 146.8h-32.1v-9.4l5.5-6.3 5.7 6.3 4.8-5 16.1 8.6z" class="st10"></path><circle cx="279" cy="128.8" r="3.5" class="st10"></circle><path d="M291.3 119h47.5v5.8h-47.5zM291.3 129.7h66.6v17.1h-66.6zM252.4 188.3h32v27.9h-32z" class="st8"></path><path d="M284.5 216.1h-32.1v-9.4l5.5-6.3 5.7 6.3 4.8-5 16.1 8.6z" class="st10"></path><circle cx="279" cy="198.1" r="3.5" class="st10"></circle><path d="M291.3 188.3h47.5v5.8h-47.5zM291.3 199h66.6v17.1h-66.6zM196.8 119h47.7v97.1h-47.7zM220.3 101.1h24.6v5.3h-24.6zM248.6 101.1h24.6v5.3h-24.6zM276.8 101.1h24.6v5.3h-24.6zM305 101.1h24.6v5.3H305zM333.2 101.1h24.6v5.3h-24.6zM196.8 87.1h19.5v19.5h-19.5z" class="st8"></path><path d="M351.8 87.1h6.4v6.2h-6.4zM342.5 87.1h6.4v6.2h-6.4zM333.2 87.1h6.4v6.2h-6.4z" class="st10"></path></g><g id="structure03"><path d="M252.4 153.6h32v27.9h-32z" class="st8"></path><path d="M284.5 181.5h-32.1v-9.4l5.5-6.3 5.7 6.3 4.8-5 16.1 8.6z" class="st10"></path><circle cx="279" cy="163.5" r="3.5" class="st10"></circle><path d="M291.3 153.6h47.5v5.8h-47.5zM291.3 164.4h66.6v17.1h-66.6zM252.4 119h32v27.9h-32z" class="st8"></path><path d="M284.5 146.8h-32.1v-9.4l5.5-6.3 5.7 6.3 4.8-5 16.1 8.6z" class="st10"></path><circle cx="279" cy="128.8" r="3.5" class="st10"></circle><path d="M291.3 119h47.5v5.8h-47.5zM291.3 129.7h66.6v17.1h-66.6zM252.4 188.3h32v27.9h-32z" class="st8"></path><path d="M284.5 216.1h-32.1v-9.4l5.5-6.3 5.7 6.3 4.8-5 16.1 8.6z" class="st10"></path><circle cx="279" cy="198.1" r="3.5" class="st10"></circle><path d="M291.3 188.3h47.5v5.8h-47.5zM291.3 199h66.6v17.1h-66.6zM196.8 119h47.7v97.1h-47.7zM220.3 101.1h24.6v5.3h-24.6zM248.6 101.1h24.6v5.3h-24.6zM276.8 101.1h24.6v5.3h-24.6zM305 101.1h24.6v5.3H305zM333.2 101.1h24.6v5.3h-24.6zM196.8 87.1h19.5v19.5h-19.5z" class="st8"></path><path d="M351.8 87.1h6.4v6.2h-6.4zM342.5 87.1h6.4v6.2h-6.4zM333.2 87.1h6.4v6.2h-6.4z" class="st10"></path></g><g><path d="M282.5 216.1v11.5c0 2.7-2.3 5-5 5s-5-2.3-5-5v-11.5h-8.7v43.8h27.4v-43.8h-8.7z" class="st8"></path><path d="M282.5 216.1h8.7v7.1h-8.7v-7.1zm-18.7 0h8.7v7.1h-8.7v-7.1zM329.5 266.9h-104l5.5-7.1h93l5.5 7.1zM329.5 266.9h-104l5.5 2.7h93l5.5-2.7zM389.8 76.8H165.1c-2.4 0-4.2 1.9-4.2 4.2v130.7c0 2.4 1.9 4.2 4.2 4.2h224.8c2.4 0 4.2-1.9 4.2-4.2V81.1c0-2.4-1.9-4.3-4.3-4.3zm.8 131.4H164.3v-127h226.3v127z" class="st8"></path></g><g><path d="M425.7 284.7c.8 1.5.5 4.1 3.3 6.4 0 0-1.2-3.5-1.8-6.9-.5-2.9-2.9-6.4-2.7-12.5 2.8-8.5 6.6-21 8.5-30.9 3.3-16.9.2-17.6.2-17.6-5.5 3.9-7.8 19-7.8 19l-3.2 29v.1c-1.1 3.8-1.8 9.2-1.5 11 .2 1 1.7 5.3 3.7 9 1.7 3 4 5.5 4 5.5s.1-1.1-.9-3.1c-1.1-2.3-3.3-5.6-2.9-7.2.7-2.9.3-3.3 1.1-1.8zM436.4 432.2l-1 22.4-14.1 1.1-6.3-.7 12.4-4 1.4-18.6z" class="st11"></path><path class="st16" d="M434.3 457.5l-3.1.4-.5-.9-11.7.2-5.7-1.5s-.2-1 .3-1.3c1.6-.9 7.6-1.4 7.6-1.4s-.8 1.1-.2 1.6c.6.5 8.4.2 10.3-.1 3.3-.6 4.4-1.5 4.5-1.3.4.8-1.5 4.3-1.5 4.3z"></path><path d="M432.1 269.5l-1.9 84.9-5.8 93.3 12.7 1s11.9-93.9 13.3-101.2c1.4-7.3 16.5-65.5 9.4-80.3-7-15-27.7 2.3-27.7 2.3z" class="st12"></path><path d="M496.4 275.1c-1-2.4-.8-11.9-1.1-13.1 0-.1-.1-.2-.3-.4-1.2-9.8-4.6-32.7-10.2-39.4-1.8-2.1-8.6-1.5-4.7 12 4.2 14.5 7.3 22.9 9.5 27.8.8 3.2 2.2 8.5 2.6 11.2.7 4-.2 10 0 11.6.4 2.7 1.4 4.8 1.4 4.8s.2-4.3.1-5.4c-.1-1.1 1.2-.6 1.2-.6s.4 5.9-.1 7.4c-.5 1.6-1.6 2.8-1.6 2.8l-.7 2.6 3.1-3.4 1.7-3.3.5-6c-.1.2-.4-6.3-1.4-8.6z" class="st11"></path><path d="M440 202.5l-4.6 47.8v2.8l-13.7-.8s4-36.9 4.6-38.7c.6-1.8 2-17.3 1.8-20-.2-2.8.4-16.7 9.5-15.3 9.1 1.4 2.4 24.2 2.4 24.2zM475.5 202.5l4.6 47.8v2.8l13.7-.8c-6.2-28-7.6-33.5-7.7-38.7-.1-1.9-.4-17.3-.2-20 .2-2.8.4-10.3-7.9-15.3-8-4.7-2.5 24.2-2.5 24.2z" class="st13"></path><path d="M458.8 429.6l.2 28.8 11.9-4.2s5-3.6.7-3.2c-6.4.7-5.1-2-5.3-7.1-.2-5.2.8-15.1.8-15.1l-8.3.8z" class="st11"></path><path class="st16" d="M472.5 451s-1.4 1.3-2.8 2.2c-1.4.9-5.4 2.9-6.9 3.2-2 .4-3.9.2-3.9.2s-.9 3 1.1 2.8c2-.2 11.9-4.6 13.3-5.6 1.4-1 1.6-2.6-.8-2.8z"></path><path class="st15" d="M461.4 271l-1.5 87.8-1.4 90.5 10.1-.5s10.1-101.1 11-108.4c.9-7.3 13-56.2 4.9-70.5-8.2-14.2-23.1 1.1-23.1 1.1z"></path><path d="M459.4 174.6s-15.6 1.1-19.3 2.6c-3.7 1.6-2.9 19.8-.5 33.3 2.4 13.5 1.3 28.6-2.1 37-3.4 8.5-6.1 24.6-6.1 24.6l54.8-.8s-12.4-33.6-12.4-46.6 3.4-42.6 3.2-45.5c-.4-2.7-14.1-4.6-17.6-4.6z" class="st6"></path><g id="cabezaHombreIzq"><path class="st16" d="M484.6 167.1c0-8.2-5.4-15.1-12.9-17.6v-10.1c0-7.6-6.1-13.7-13.7-13.7h-3.4c-7.6 0-13.7 6.1-13.7 13.7v5.1c0 .4 0 .9.1 1.3-5.2 3.3-8.6 9.1-8.6 15.6 0 3.5 1 6.7 2.6 9.4-1.9 2.9-3 6.4-3 10.1 0 7.8 4.8 14.4 11.7 17.2 3.2 5.8 9.5 9.7 16.7 9.7 10.5 0 19.1-8.4 19.1-18.7 0-2.7-.6-5.3-1.7-7.7 4.1-3.4 6.8-8.6 6.8-14.3z"></path></g></g><g id="Globo02"><path class="st14" d="M521 52.1h-54.4c-5.7 0-10.3 4.6-10.3 10.3v46.3c0 1.4 1.7 2.2 2.7 1.2l7.7-9.2H521c5.7 0 10.3-4.6 10.3-10.3v-28c0-5.7-4.6-10.3-10.3-10.3z" opacity=".9"></path><circle id="P01" cx="479.1" cy="77.5" r="3.7" class="st7"></circle><circle id="P02" cx="492.9" cy="77.5" r="3.7" class="st7"></circle><circle id="P03" cx="506.7" cy="77.5" r="3.7" class="st7"></circle></g><g><path class="st16" d="M60 437c.5.7.1 2.5.1 2.5s-9 1.1-11.9.4c-.7-.2-2-.9-3.2-1.6-.2-.1-.6-.9-.8-1-.4-.2-.5.2-.9-.1-.8-.5-1.4-1-1.4-1-.8-4.5.3-6.3.3-6.3s7.7-2.8 9.1-.9c3.5 4.5 7.6 6.5 8.7 8zM107.3 431.1l1.3 7.3h3.5s.4-1 1-1c.5 0 1.2 1 1.8 1H133s.3-1.5-.1-2.1c-.2-.3-1.4-.7-2.2-1-3.7-1.1-14.2-4.5-16-8.1-2.1-4.4-7.4 3.9-7.4 3.9z"></path><path class="st15" d="M113.5 238.4s-17.1-7.3-26.3 5.2c-6.8 9.2-6.4 36.3-5.8 48.4 1.1 21.4 8.1 39.3 11.5 46.9h-.1s-3.5 14.2-3 34.6c.3 14.2 10.5 45.4 17.4 58.1 3 5.5 7-.4 7-.4l.3-99.3-1-93.5z"></path><path d="M106.3 238.4l-3.2 32.3-8.8 35.1-9.3 32.8-33.3 91-9.7.8s1.2-68.3 13.1-88.2c6.3-10.5 6.3-33.9 9.2-59.1.5-4.5-2-14.8-1.6-18.9 1.6-16.3 10-28.5 10-28.5l33.6 2.7z" class="st12"></path><path d="M137 201.3c1.2-1.9 2.4-3.8 3.3-5.9 1.3-3.3 2-7 3.1-10.4 1.2-3.7 2.8-7.2 4.9-10.3 0-.2-.1-.4-.1-.6-.3-1.5-.6-2.4-1.2-3.1-.9-.2-1.8-.4-2.7-.7-1.5-.3-2.7-.9-3.7-1.7-.8 0-2.6-.2-3.7-1.7-1.3-1.9-9.9-8.3-22.2-24.2-.4-.5-.8-.9-1.3-1.2-.5-1.1-.8-1.7-.8-1.7s-26.2 0-48.9.5c-.7 0-1.3.1-1.9.1-.4 0-.9-.1-1.4 0-18.4 2-26.7 14.3-26.7 14.3l-21.4 58.1 8.1 14 18.3-3.2-1.8-2.8 3.2-1.3 13.6-39.2L71 238.9l42.8.9c4.6-17.5 6.7-32.7 7.3-45.7 4.6 3.7 8.2 5.9 11 7.3 1.6-.5 3.3-.6 4.9-.1z" class="st6"></path><path d="M58.4 270.3l-7.5-4.2-.9-.9 1.1-1.7 1.6.2-.3-4.9 7.9-1.4 4-1.9-3.7 13.3z" class="st11"></path><path d="M37.1 222l27.1 33s-1 4.8-3.1 2.3c-.3-.3 1-1.3-.6-2.2-6.7-3.6-22.3-9.2-28.1-14.8-7.6-7.4-13-16-13-16l17.7-2.3z" class="st11"></path><path d="M89.9 147.5l-1.1 7.6-13-12.3v-1.9zM94 142.6l2.2 9.9-5.7-5zM12.1 212.8s21.3 5.7 27.8 6.7l-3.2 1.3 1.8 2.8-6.3 1.1-12 2.1-2.8-4.8-5.3-9.2z" class="st13"></path><path d="M74.2 131.7c.5 2.4 1.4 6 2.3 8.1 1.5 3.3 14.3 7.6 16.3 8.1s-.5-10-.5-12.3c0-1.8-1.2-1.2.2-3.9H74.2z" class="st11"></path><g id="cabezaHombreDer"><path d="M96.1 126.4l-.8-5c.5-.2.9-.7.8-1.3l-1-6.5c-.1-.6-.6-1-1.1-1l-1.7-10.7c-.3-2-2.2-3.4-4.3-3.1l-16.6 2.6c-2 .3-3.4 2.2-3.1 4.3l1.7 10.6-1.3.2c-.7.1-1.1.8-1 1.4l1.1 6.5c.1.7.7 1.1 1.4 1l1.3-.2.8 4.9c.3 2 2.2 3.4 4.3 3.1l16.6-2.7c1.8-.1 3.2-2 2.9-4.1z" class="st11"></path><path d="M69 105.6c.3-2.7 7.2-1.8 10.9-1.4 3.6.4 6.3-.5 10.5-3.5.8.4 1.6.8 1.7 1 .3.6.8 5.3.8 5.3s1.8-2.7 2-4.3c.1-.7-.8-2.7-2.3-3.8.1-.1.2-.3.3-.4 0-.1-2.3-.6-3-4.1-.9-4.7-5-4.9-7.4-3.9-1.5.6-5.3 5-7.5 6.9-2.2 1.9-2.4.9-7.4 2.1-3.3.8-3.3 2.8-3.3 5.6s4 11.8 4 11.8c.7.4 1.5.5 1.7-.1.3-.5-1.3-8.4-1-11.2zM99.3 127.3c-.3-1.8-3.2-6.8-4.4-7.7l.6 4s-2.6-3.6-7.3-2.8c-7.5 1.2-8.5 5.8-11.8 6.3-2.5.3-5.1-3.5-6.2-8.1 0 0 1.5 9.6 2.1 12.9.5 2.9 2.7 9.1 19.1 6.5 9.7-1.7 8.2-8.8 7.9-11.1z" class="st17"></path></g><g id="BrazoHombre"><path d="M142.2 167l-1.4 1.6s-1.8.2-3.1-.8c-3.3 1.2-5.1 8.5-6.5 11.4-.3.7-.7 1.4-1 2.1 0 .3.1.7.1 1 0 4.7 0 9.5-.4 14.2-.1 1.2-.3 2.3-.4 3.5 9.4 5.5 11.6 2.2 11.6 2.2l7.8-5.2 5.8-27.1-12.5-2.9z" class="st6"></path><path d="M129.9 178.2l3.8-7.7 3.7-2.9c1.4 1.2 3.5 1 3.5 1l-3.4 4.1-4 7.2-2.7 16.1-.9-17.8z" class="st13"></path><path d="M204.1 133.8c-.6-.1-1.3.2-1.8.4l2.6-2.1s.4-.2 0-.9c-.5-.7-1.9-.3-1.9-.3l-10.4 4.9 9.2-8s.6-1.3-.9-1.3c-.5 0-1.9 1.1-1.9 1.1l-2.5 1.8-6.1 3.3-4.7 3.1s-2.9 1.4.6-3.5c3.5-4.8.8-5.5.8-5.5l-1.5 1.7s-5.1 7.3-6.4 9.4c-1.1 1.8.5 8.1 1 9.9-4.2 23.1-27.6 23.5-27.6 23.5S137 193 142.3 196.6c5.4 3.5 11.3 1.4 25.2-7.3 13.9-8.7 18.7-30.4 17.3-38.1-.1-.7-.3-1.5-.4-2.2l18-9.1s-.2-.2-.7-.9c-.5-.6-1.9-.3-1.9-.3l-5.6 1.9 10.9-5.7c.1.1.1-1-1-1.1z" class="st11"></path></g></g><g id="validation01"><path class="st18" d="M297.1,51.7c0,10.4-8.5,18.9-18.9,18.9c-10.4,0-18.9-8.5-18.9-18.9s8.5-18.9,18.9-18.9 C288.6,32.8,297.1,41.3,297.1,51.7z M294.7,51.7c0-9.1-7.4-16.4-16.4-16.4c-9.1,0-16.4,7.4-16.4,16.4c0,9.1,7.4,16.4,16.4,16.4 C287.3,68.2,294.7,60.8,294.7,51.7z M280.1,51.7l5.3,5.3c0.4,0.4,0.4,0.9,0,1.3l-0.6,0.6c-0.4,0.4-0.9,0.4-1.3,0l-5.3-5.3l-5.3,5.3 c-0.4,0.4-0.9,0.4-1.3,0l-0.6-0.6c-0.4-0.4-0.4-0.9,0-1.3l5.3-5.3l-5.3-5.3c-0.4-0.4-0.4-0.9,0-1.3l0.6-0.6c0.4-0.4,0.9-0.4,1.3,0 l5.3,5.3l5.3-5.3c0.4-0.4,0.9-0.4,1.3,0l0.6,0.6c0.3,0.4,0.3,0.9,0,1.3L280.1,51.7z"></path></g><g id="validation02"><path class="st2" d="M297.1 14c0 10.4-8.5 18.9-18.9 18.9s-18.9-8.5-18.9-18.9 8.5-18.9 18.9-18.9 18.9 8.4 18.9 18.9zm-2.4 0c0-9.1-7.4-16.4-16.4-16.4-9.1 0-16.4 7.4-16.4 16.4 0 9.1 7.4 16.4 16.4 16.4 9 0 16.4-7.4 16.4-16.4zm-19.5 9.1c-.4.4-.9.4-1.3 0l-6.5-6.6c-.4-.4-.4-.9 0-1.3l.6-.6c.4-.4.9-.4 1.3 0l5.3 5.3L287 7.6c.4-.4.9-.4 1.3 0l.6.6c.4.4.4.9 0 1.3l-13.7 13.6z"></path></g></svg> 